<?xml version="1.0" encoding="UTF-8" standalone="no"?>
<!DOCTYPE svg PUBLIC "-//W3C//DTD SVG 1.1//EN" "http://www.w3.org/Graphics/SVG/1.1/DTD/svg11.dtd">
<svg width="100%" height="100%" viewBox="0 0 520 140" version="1.1" xmlns="http://www.w3.org/2000/svg" xmlns:xlink="http://www.w3.org/1999/xlink" xml:space="preserve" xmlns:serif="http://www.serif.com/" style="fill-rule:evenodd;clip-rule:evenodd;">
    <g>
        <g transform="matrix(1,0,0,1,70,70)">
            <g transform="matrix(1,0,0,1,-70,-70)">
                <clipPath id="_clip1">
                    <rect x="0" y="0" width="140" height="140"/>
                </clipPath>
                <g clip-path="url(#_clip1)">
                    <g>
                        <path d="M22.27,22.27C34.924,9.616 52.105,2.499 70,2.499C87.895,2.499 105.076,9.616 117.73,22.27" style="fill:none;fill-rule:nonzero;stroke:rgb(10,25,41);stroke-width:5px;"/>
                        <path d="M117.73,22.27C130.384,34.924 137.501,52.105 137.501,70C137.501,87.895 130.384,105.076 117.73,117.73" style="fill:none;fill-rule:nonzero;stroke:rgb(10,25,41);stroke-width:5px;"/>
                        <path d="M111.37,111.37C100.403,122.339 85.511,128.509 70,128.509C54.489,128.509 39.597,122.339 28.63,111.37" style="fill:none;fill-rule:nonzero;stroke:rgb(10,25,41);stroke-opacity:0.5;stroke-width:3px;"/>
                        <path d="M28.63,111.37C17.661,100.403 11.491,85.511 11.491,70C11.491,54.489 17.661,39.597 28.63,28.63" style="fill:none;fill-rule:nonzero;stroke:rgb(10,25,41);stroke-opacity:0.5;stroke-width:3px;"/>
                    </g>
                    <path d="M41,99L41,43L51.355,42.965L70.007,70.829L88.679,43.013L99,43L99,99L85,99L85,72L74.439,86.559L65.044,86.533L55,71L55,99L41,99Z" style="fill:rgb(10,25,41);fill-rule:nonzero;"/>
                </g>
            </g>
        </g>
        <g transform="matrix(1.078024,0,0,1.078024,171.681661,93.375331)">
            <path d="M4.08,0L4.08,-42.36L10.8,-42.36L27.48,-16.38L24.06,-16.38L40.68,-42.36L47.46,-42.36L47.46,0L38.04,0L38.04,-26.46L39.72,-26.04L28.86,-9.12L22.62,-9.12L11.82,-26.04L13.44,-26.46L13.44,0L4.08,0Z" style="fill:rgb(10,25,41);fill-rule:nonzero;"/>
            <g>
                <path d="M54.72,0L54.72,-29.16L63.9,-29.16L63.9,0L54.72,0ZM59.34,-33.18C57.9,-33.18 56.71,-33.67 55.77,-34.65C54.83,-35.63 54.36,-36.82 54.36,-38.22C54.36,-39.66 54.83,-40.86 55.77,-41.82C56.71,-42.78 57.9,-43.26 59.34,-43.26C60.78,-43.26 61.96,-42.78 62.88,-41.82C63.8,-40.86 64.26,-39.66 64.26,-38.22C64.26,-36.82 63.8,-35.63 62.88,-34.65C61.96,-33.67 60.78,-33.18 59.34,-33.18Z" style="fill:rgb(10,25,41);fill-rule:nonzero;"/>
                <path d="M88.44,0L81.42,-11.34L79.44,-12.6L67.98,-29.16L78.72,-29.16L85.26,-18.54L87.18,-17.34L99.06,0L88.44,0ZM67.44,0L79.38,-16.98L84.6,-11.1L77.46,0L67.44,0ZM87.12,-12.66L81.9,-18.54L88.5,-29.16L98.46,-29.16L87.12,-12.66Z" style="fill:rgb(10,25,41);fill-rule:nonzero;"/>
            </g>
            <g>
                <rect x="103.38" y="-42.36" width="9.42" height="42.36" style="fill:rgb(10,25,41);fill-rule:nonzero;"/>
                <path d="M139.38,0L139.38,-16.62C139.38,-18.14 138.91,-19.37 137.97,-20.31C137.03,-21.25 135.84,-21.72 134.4,-21.72C133.4,-21.72 132.52,-21.51 131.76,-21.09C131,-20.67 130.4,-20.07 129.96,-19.29C129.52,-18.51 129.3,-17.62 129.3,-16.62L125.76,-18.36C125.76,-20.64 126.26,-22.64 127.26,-24.36C128.26,-26.08 129.65,-27.41 131.43,-28.35C133.21,-29.29 135.22,-29.76 137.46,-29.76C139.62,-29.76 141.53,-29.25 143.19,-28.23C144.85,-27.21 146.16,-25.86 147.12,-24.18C148.08,-22.5 148.56,-20.66 148.56,-18.66L148.56,0L139.38,0ZM120.12,0L120.12,-29.16L129.3,-29.16L129.3,0L120.12,0Z" style="fill:rgb(10,25,41);fill-rule:nonzero;"/>
                <path d="M168.54,0.66C165.54,0.66 162.82,0 160.38,-1.32C157.94,-2.64 156.02,-4.46 154.62,-6.78C153.22,-9.1 152.52,-11.7 152.52,-14.58C152.52,-17.5 153.23,-20.11 154.65,-22.41C156.07,-24.71 158,-26.52 160.44,-27.84C162.88,-29.16 165.62,-29.82 168.66,-29.82C170.94,-29.82 173.03,-29.43 174.93,-28.65C176.83,-27.87 178.52,-26.7 180,-25.14L174.12,-19.26C173.44,-20.02 172.65,-20.58 171.75,-20.94C170.85,-21.3 169.82,-21.48 168.66,-21.48C167.34,-21.48 166.17,-21.19 165.15,-20.61C164.13,-20.03 163.33,-19.23 162.75,-18.21C162.17,-17.19 161.88,-16 161.88,-14.64C161.88,-13.28 162.17,-12.08 162.75,-11.04C163.33,-10 164.14,-9.18 165.18,-8.58C166.22,-7.98 167.38,-7.68 168.66,-7.68C169.86,-7.68 170.93,-7.89 171.87,-8.31C172.81,-8.73 173.62,-9.32 174.3,-10.08L180.12,-4.2C178.6,-2.6 176.88,-1.39 174.96,-0.57C173.04,0.25 170.9,0.66 168.54,0.66Z" style="fill:rgb(10,25,41);fill-rule:nonzero;"/>
                <path d="M197.52,0.66C194.52,0.66 191.81,-0.01 189.39,-1.35C186.97,-2.69 185.06,-4.52 183.66,-6.84C182.26,-9.16 181.56,-11.76 181.56,-14.64C181.56,-17.52 182.26,-20.1 183.66,-22.38C185.06,-24.66 186.96,-26.47 189.36,-27.81C191.76,-29.15 194.48,-29.82 197.52,-29.82C200.56,-29.82 203.28,-29.16 205.68,-27.84C208.08,-26.52 209.98,-24.71 211.38,-22.41C212.78,-20.11 213.48,-17.52 213.48,-14.64C213.48,-11.76 212.78,-9.16 211.38,-6.84C209.98,-4.52 208.08,-2.69 205.68,-1.35C203.28,-0.01 200.56,0.66 197.52,0.66ZM197.52,-7.68C198.84,-7.68 200,-7.97 201,-8.55C202,-9.13 202.77,-9.95 203.31,-11.01C203.85,-12.07 204.12,-13.28 204.12,-14.64C204.12,-16 203.84,-17.19 203.28,-18.21C202.72,-19.23 201.95,-20.03 200.97,-20.61C199.99,-21.19 198.84,-21.48 197.52,-21.48C196.24,-21.48 195.1,-21.19 194.1,-20.61C193.1,-20.03 192.32,-19.22 191.76,-18.18C191.2,-17.14 190.92,-15.94 190.92,-14.58C190.92,-13.26 191.2,-12.07 191.76,-11.01C192.32,-9.95 193.1,-9.13 194.1,-8.55C195.1,-7.97 196.24,-7.68 197.52,-7.68Z" style="fill:rgb(10,25,41);fill-rule:nonzero;"/>
                <path d="M218.04,0L218.04,-29.16L227.22,-29.16L227.22,0L218.04,0ZM236.7,0L236.7,-17.04C236.7,-18.52 236.25,-19.67 235.35,-20.49C234.45,-21.31 233.34,-21.72 232.02,-21.72C231.1,-21.72 230.28,-21.53 229.56,-21.15C228.84,-20.77 228.27,-20.24 227.85,-19.56C227.43,-18.88 227.22,-18.04 227.22,-17.04L223.68,-18.6C223.68,-20.92 224.18,-22.91 225.18,-24.57C226.18,-26.23 227.54,-27.51 229.26,-28.41C230.98,-29.31 232.92,-29.76 235.08,-29.76C237.12,-29.76 238.95,-29.3 240.57,-28.38C242.19,-27.46 243.48,-26.18 244.44,-24.54C245.4,-22.9 245.88,-20.94 245.88,-18.66L245.88,0L236.7,0ZM255.36,0L255.36,-17.04C255.36,-18.52 254.91,-19.67 254.01,-20.49C253.11,-21.31 252,-21.72 250.68,-21.72C249.76,-21.72 248.94,-21.53 248.22,-21.15C247.5,-20.77 246.93,-20.24 246.51,-19.56C246.09,-18.88 245.88,-18.04 245.88,-17.04L240.6,-17.76C240.68,-20.24 241.27,-22.37 242.37,-24.15C243.47,-25.93 244.93,-27.31 246.75,-28.29C248.57,-29.27 250.62,-29.76 252.9,-29.76C255.14,-29.76 257.13,-29.29 258.87,-28.35C260.61,-27.41 261.99,-26.07 263.01,-24.33C264.03,-22.59 264.54,-20.5 264.54,-18.06L264.54,0L255.36,0Z" style="fill:rgb(10,25,41);fill-rule:nonzero;"/>
                <path d="M284.82,0.66C281.66,0.66 278.85,0.01 276.39,-1.29C273.93,-2.59 272,-4.4 270.6,-6.72C269.2,-9.04 268.5,-11.66 268.5,-14.58C268.5,-17.5 269.19,-20.11 270.57,-22.41C271.95,-24.71 273.82,-26.52 276.18,-27.84C278.54,-29.16 281.2,-29.82 284.16,-29.82C287.04,-29.82 289.58,-29.2 291.78,-27.96C293.98,-26.72 295.71,-25 296.97,-22.8C298.23,-20.6 298.86,-18.08 298.86,-15.24C298.86,-14.72 298.83,-14.17 298.77,-13.59C298.71,-13.01 298.6,-12.34 298.44,-11.58L273.3,-11.52L273.3,-17.82L294.54,-17.88L290.58,-15.24C290.54,-16.92 290.28,-18.31 289.8,-19.41C289.32,-20.51 288.61,-21.35 287.67,-21.93C286.73,-22.51 285.58,-22.8 284.22,-22.8C282.78,-22.8 281.53,-22.47 280.47,-21.81C279.41,-21.15 278.59,-20.22 278.01,-19.02C277.43,-17.82 277.14,-16.36 277.14,-14.64C277.14,-12.92 277.45,-11.45 278.07,-10.23C278.69,-9.01 279.57,-8.07 280.71,-7.41C281.85,-6.75 283.2,-6.42 284.76,-6.42C286.2,-6.42 287.5,-6.67 288.66,-7.17C289.82,-7.67 290.84,-8.42 291.72,-9.42L296.76,-4.38C295.32,-2.7 293.58,-1.44 291.54,-0.6C289.5,0.24 287.26,0.66 284.82,0.66Z" style="fill:rgb(10,25,41);fill-rule:nonzero;"/>
            </g>
        </g>
    </g>
</svg>
